<?xml version="1.0" encoding="UTF-8"?>
<svg width="47.998" height="48" version="1.1" viewBox="0 0 47.998 48" xml:space="preserve" xmlns="http://www.w3.org/2000/svg">
<g transform="matrix(.078426 0 0 .078426 -.00088229 -1.9606e-5)">
	<g id="cross">
		
			<path d="m397.5 306.01 195.58-195.58c25.27-25.269 25.27-66.213 0-91.482-25.269-25.269-66.213-25.269-91.481 0l-195.58 195.6-195.58-195.58c-25.269-25.269-66.213-25.269-91.482 0s-25.269 66.213 0 91.482l195.58 195.58-195.58 195.58c-25.269 25.269-25.269 66.213 0 91.481 25.269 25.27 66.213 25.27 91.482 0l195.58-195.58 195.58 195.58c25.269 25.27 66.213 25.27 91.481 0 25.27-25.269 25.27-66.213 0-91.481z"/>
		
	</g>
</g>















</svg>
